<svg xmlns="http://www.w3.org/2000/svg" viewBox="0 0 536.93 805.73">
    <defs>
        <style>
            .cls-1{fill:#e4e0e5;}.cls-2{fill:#0099d6;}.cls-3{fill:#c9c7c7;}.cls-4{fill:#46ac36;}.cls-5{fill:#ededed;stroke:#ededed;stroke-width:1.2px;}.cls-5,.cls-9{stroke-miterlimit:10;}.cls-6{fill:#c6057d;}.cls-7{fill:#ffcd00;}.cls-8{fill:#cb2182;}.cls-9{fill:#d9d8d6;stroke:#d9d8d7;stroke-width:6px;}.cls-10{fill:#98989a;}.cls-11{fill:#f6a019;}.cls-12{fill:none;}.cls-13{fill:#fff;}.cls-14{fill:#005587;}.cls-15{fill:#036939;}
        </style>
    </defs>
    <title>mappe web 19-05</title>
    <g id="Livello_2" data-name="Livello 2">
        <path class="cls-1"
              d="M479.18,595.26,388.92,820.72a22,22,0,0,1-28.06,12.46h0a22,22,0,0,1-12.8-28.77L389.65,700a33.93,33.93,0,0,0-19.21-44.18L195.31,587.6a33.54,33.54,0,0,1-18.7-44.39h0L66.67,499.82a34,34,0,0,1-21.39-28.74L34.52,343.84a33.87,33.87,0,0,1,2.26-15.36L51.5,291.26a33.77,33.77,0,0,1,4.92-8.56L239,51.39a34,34,0,0,1,25.47-12.91l271.75-9.64a33.86,33.86,0,0,1,32.66,46.37L431,421.51a33.94,33.94,0,0,0-.08,24.94l48.38,123.81A34,34,0,0,1,479.18,595.26Z"
              transform="translate(-34.39 -28.82)"/>
        <rect class="cls-2" x="480.74" y="74.17" width="23.89" height="74.78" rx="8.55"
              transform="translate(-45.33 43.35) rotate(-8.29)"/>
        <rect class="cls-2" x="496.85" y="74.98" width="20.64" height="50.19" rx="7.13"
              transform="translate(-44.03 59.09) rotate(-9.81)"/>
        <rect class="cls-2" x="509.4" y="72.15" width="19.6" height="27.09" rx="7.13"
              transform="translate(-41.4 60.93) rotate(-9.81)"/>
        <rect class="cls-2" x="383.9" y="78.58" width="43.57" height="65.95" rx="12"
              transform="translate(-46.24 30.81) rotate(-8.29)"/>
        <path class="cls-3"
              d="M311.3,202.53,261.13,322.37a14.43,14.43,0,0,1-18.82,7.72l-91.86-38.45a11.54,11.54,0,0,1,8.91-21.29l23.7,9.92,10.5-25.08a14.44,14.44,0,0,1,18.83-7.72l33.67,14.1,11.23-26.82-7.36-3.08a14.42,14.42,0,0,1-7.71-18.82l1.89-4.53-3.72-1.55L238.61,211a13.24,13.24,0,1,1-24.42-10.22l14.41-34.42A13.24,13.24,0,0,1,253,176.6l-7.63,18.23,3.71,1.56,7.09-16.93A14.44,14.44,0,0,1,275,171.74l28.56,12A14.44,14.44,0,0,1,311.3,202.53Z"
              transform="translate(-34.39 -28.82)"/>
        <rect class="cls-3" x="296.4" y="186.06" width="158.73" height="192.36" rx="12"
              transform="translate(103.73 -152.02) rotate(22.71)"/>
        <rect class="cls-4" x="310.36" y="244.86" width="11.21" height="24.96" rx="4.67"
              transform="translate(89.47 -130.86) rotate(22.71)"/>
        <rect class="cls-4" x="431.99" y="297.95" width="13.25" height="27.21" rx="5.53"
              transform="translate(119.92 -174.02) rotate(22.71)"/>
        <circle class="cls-2" cx="393.04" cy="226" r="33.07"/>
        <circle class="cls-2" cx="324.78" cy="197.06" r="33.07"/>
        <circle class="cls-2" cx="356.11" cy="313.36" r="33.07"/>
        <circle class="cls-2" cx="288.52" cy="284.56" r="33.07"/>
        <rect class="cls-5" x="363.66" y="271.52" width="17.89" height="17.89" rx="7.46"
              transform="translate(102.79 -150.94) rotate(22.71)"/>
        <rect class="cls-6" x="150.28" y="204.96" width="24.79" height="55.22" rx="10.34"
              transform="translate(68.02 -73.6) rotate(22.71)"/>
        <rect class="cls-6" x="169.5" y="191.29" width="20.17" height="9.52" rx="3.97"
              transform="translate(55.23 -82.96) rotate(22.71)"/>
        <rect class="cls-7" x="205.81" y="228.09" width="32.02" height="14.22" rx="5.93"
              transform="translate(73.63 -96.23) rotate(22.71)"/>
        <rect class="cls-4" x="238.24" y="237.38" width="8.46" height="14.07" rx="3.53"
              transform="translate(78.78 -103.49) rotate(22.71)"/>
        <rect class="cls-4" x="267.62" y="141.62" width="56.29" height="26.14" rx="10.9"
              transform="translate(48.27 -131.02) rotate(22.71)"/>
        <path class="cls-4"
              d="M271.91,125.06l-9,21.41a5.1,5.1,0,0,1-6.66,2.73l-21.42-9a5.11,5.11,0,0,1-2.72-6.66,5.12,5.12,0,0,1,6.65-2.73l16.72,7,7-16.72a5.09,5.09,0,0,1,9.39,3.93Z"
              transform="translate(-34.39 -28.82)"/>
        <rect class="cls-4" x="181.22" y="138.22" width="36.27" height="49.19" rx="12"
              transform="translate(43.93 -93.16) rotate(22.71)"/>
        <rect class="cls-4" x="87.26" y="285.25" width="36.26" height="23.18" rx="9.67"
              transform="translate(88.4 -46.49) rotate(22.71)"/>
        <rect class="cls-6" x="66.68" y="336.48" width="24.56" height="47.02" rx="10.24"
              transform="translate(110.73 -31.39) rotate(22.71)"/>
        <rect class="cls-3" x="87.12" y="351.19" width="20.49" height="73.84" rx="8.55"
              transform="translate(123.01 -36.31) rotate(22.71)"/>
        <rect class="cls-3" x="133.76" y="312.23" width="10.18" height="32.95" rx="4.24"
              transform="translate(103.29 -56.94) rotate(22.71)"/>
        <rect class="cls-3" x="142.6" y="336.1" width="7.91" height="39.78" rx="3.3"
              transform="matrix(0.92, 0.39, -0.39, 0.92, 114.43, -57.8)"/>
        <rect class="cls-3" x="183.63" y="392.89" width="177.34" height="4.64" rx="1.93"
              transform="translate(139.32 -103.31) rotate(22.71)"/>
        <rect class="cls-3" x="315.63" y="390.1" width="45.55" height="21.02" rx="8.77"
              transform="translate(146.53 -128.41) rotate(22.71)"/>
        <rect class="cls-3" x="371.11" y="423.07" width="16.57" height="23.24" rx="6.91"
              transform="matrix(0.92, 0.39, -0.39, 0.92, 162.87, -141.6)"/>
        <rect class="cls-2" x="354.74" y="447.28" width="24.11" height="34.99" rx="10.06"
              transform="translate(173.51 -134.4) rotate(22.71)"/>
        <rect class="cls-2" x="148.97" y="365.53" width="60.21" height="62.74" rx="12"
              transform="translate(132.75 -67.18) rotate(22.71)"/>
        <rect class="cls-2" x="123.16" y="427.2" width="60.21" height="62.74" rx="12"
              transform="translate(154.55 -52.43) rotate(22.71)"/>
        <rect class="cls-2" x="213.84" y="392.62" width="60.21" height="62.74" rx="12"
              transform="translate(148.24 -90.13) rotate(22.71)"/>
        <rect class="cls-2" x="188.09" y="454.14" width="60.21" height="62.74" rx="12"
              transform="translate(169.99 -75.41) rotate(22.71)"/>
        <rect class="cls-2" x="279.8" y="419.28" width="61.69" height="31.31" rx="12"
              transform="translate(157.64 -115.03) rotate(22.71)"/>
        <rect class="cls-2" x="266.21" y="451.74" width="61.69" height="31.31" rx="12"
              transform="translate(169.12 -107.27) rotate(22.71)"/>
        <rect class="cls-2" x="252.63" y="484.2" width="61.69" height="31.31" rx="12"
              transform="translate(180.59 -99.51) rotate(22.71)"/>
        <rect class="cls-2" x="239.04" y="516.65" width="61.69" height="31.31" rx="12"
              transform="translate(192.07 -91.75) rotate(22.71)"/>
        <rect class="cls-3" x="137.09" y="513.3" width="103.15" height="6.54" rx="2.73"
              transform="translate(179.7 -61.6) rotate(22.71)"/>
        <rect class="cls-3" x="372.2" y="481.36" width="8.41" height="12.08" rx="3.51"
              transform="matrix(0.92, 0.39, -0.39, 0.92, 182.99, -136.36)"/>
        <rect class="cls-2" x="334.58" y="496.19" width="30.27" height="84.14" rx="12"
              transform="translate(200.56 -122.11) rotate(22.71)"/>
        <rect class="cls-2" x="364.89" y="510" width="30.27" height="84.14" rx="12"
              transform="translate(208.25 -132.74) rotate(22.71)"/>
        <rect class="cls-2" x="287.47" y="599.8" width="122.09" height="18.63" rx="7.77"
              transform="translate(227.83 -116.15) rotate(22.71)"/>
        <rect class="cls-6" x="154.4" y="318.83" width="29.46" height="16.27" rx="6.78"
              transform="translate(104.97 -68.77) rotate(22.71)"/>
        <rect class="cls-6" x="185.19" y="334.93" width="45.55" height="12.47" rx="5.2"
              transform="translate(113.46 -82.66) rotate(22.71)"/>
        <rect class="cls-6" x="257.02" y="362.69" width="50.93" height="24.09" rx="10.05"
              transform="translate(132.21 -108.83) rotate(22.71)"/>
        <rect class="cls-6" x="241.63" y="340.13" width="16.4" height="14.95" rx="5.12"
              transform="translate(119.2 -98.32) rotate(22.71)"/>
        <rect class="cls-6" x="247.32" y="350.98" width="5" height="22.77" rx="1.77"
              transform="translate(124.9 -97.18) rotate(22.71)"/>
        <rect class="cls-3" x="377.39" y="498.71" width="12.08" height="4.14" rx="1.72"
              transform="translate(188.7 -138.03) rotate(22.71)"/>
        <rect class="cls-2" x="103.23" y="411.44" width="16.59" height="61.77" rx="6.92"
              transform="translate(145.05 -37.58) rotate(22.71)"/>
        <rect class="cls-4" x="245.16" y="204.1" width="22.53" height="22.53" rx="9.4"
              transform="translate(68.65 -111.13) rotate(22.71)"/>
        <path class="cls-4"
              d="M247.87,178.64a9.27,9.27,0,1,1-6.45-12.59l1-2.27a1.56,1.56,0,1,1,2.88,1.21l-1,2.28A9.25,9.25,0,0,1,247.87,178.64Z"
              transform="translate(-34.39 -28.82)"/>
        <path class="cls-4"
              d="M276.53,190.64a9.27,9.27,0,1,1-6.44-12.59l.94-2.27a1.56,1.56,0,1,1,2.88,1.21l-1,2.27A9.27,9.27,0,0,1,276.53,190.64Z"
              transform="translate(-34.39 -28.82)"/>
        <path class="cls-4"
              d="M288.77,217a9.27,9.27,0,1,1-12.59,6.44l-2.27-.95a1.56,1.56,0,1,1,1.21-2.87l2.27.95A9.26,9.26,0,0,1,288.77,217Z"
              transform="translate(-34.39 -28.82)"/>
        <path class="cls-4"
              d="M278.1,242.46a9.27,9.27,0,1,1-12.59,6.44l-2.27-1a1.56,1.56,0,1,1,1.21-2.87l2.28.95A9.24,9.24,0,0,1,278.1,242.46Z"
              transform="translate(-34.39 -28.82)"/>
        <rect class="cls-7" x="226.21" y="275.9" width="22.53" height="22.53" rx="9.4"
              transform="translate(94.91 -98.24) rotate(22.71)"/>
        <circle class="cls-4" cx="193.12" cy="174.44" r="10.18"/>
        <rect class="cls-3" x="311.01" y="66.56" width="232.87" height="23.24" rx="9.69"
              transform="translate(-41.2 33.6) rotate(-8.29)"/>
        <rect class="cls-3" x="375.04" y="155.53" width="17.92" height="8" rx="3.34"
              transform="translate(-58.5 51) rotate(-11.51)"/>
        <rect class="cls-3" x="322.33" y="108.77" width="10.47" height="22.62" rx="4.37"
              transform="translate(-48.28 19.65) rotate(-8.29)"/>
        <rect class="cls-3" x="433.22" y="77.51" width="17.1" height="50.19" rx="7.13"
              transform="translate(-45.42 47.98) rotate(-9.81)"/>
        <rect class="cls-3" x="455.96" y="73.57" width="17.1" height="50.19" rx="7.13"
              transform="translate(-44.41 51.8) rotate(-9.81)"/>
        <rect class="cls-3" x="337.08" y="82.85" width="40.8" height="58.55" rx="12"
              transform="matrix(0.99, -0.14, 0.14, 0.99, -46.82, 23.87)"/>
        <rect class="cls-3" x="445.87" y="142.55" width="20.42" height="28.35" rx="8.52"
              transform="translate(-56.49 65.33) rotate(-11.51)"/>
        <rect class="cls-3" x="402.1" y="171.36" width="71.9" height="15.11" rx="6.3"
              transform="translate(68.66 -184.08) rotate(22.71)"/>
        <rect class="cls-3" x="401.64" y="148.56" width="40.23" height="25.08" rx="8.52"
              transform="translate(-58.06 58.57) rotate(-11.51)"/>
        <rect class="cls-2" x="318.95" y="555.05" width="4.18" height="35.87" rx="1.74"
              transform="translate(211.74 -108.34) rotate(22.71)"/>
        <rect class="cls-8" x="358.04" y="748.14" width="20.66" height="63.97" rx="8.61"
              transform="translate(277.69 -109.58) rotate(21.54)"/>
        <line class="cls-9" x1="342.86" y1="573.65" x2="330.04" y2="606"/>
        <rect class="cls-7" x="196.7" y="263.55" width="22.53" height="22.53" rx="9.4"
              transform="translate(87.85 -87.8) rotate(22.71)"/>
        <rect class="cls-2" x="230.53" y="355.33" width="8.46" height="14.07" rx="3.53"
              transform="translate(123.73 -91.36) rotate(22.71)"/>
        <path class="cls-1"
              d="M479.18,595.26,388.92,820.72a22,22,0,0,1-28.06,12.46h0a22,22,0,0,1-12.8-28.77L389.65,700a33.93,33.93,0,0,0-19.21-44.18L195.31,587.6a33.54,33.54,0,0,1-18.7-44.39h0L66.67,499.82a34,34,0,0,1-21.39-28.74L34.52,343.84a33.87,33.87,0,0,1,2.26-15.36L51.5,291.26a33.77,33.77,0,0,1,4.92-8.56L239,51.39a34,34,0,0,1,25.47-12.91l271.75-9.64a33.86,33.86,0,0,1,32.66,46.37L431,421.51a33.94,33.94,0,0,0-.08,24.94l48.38,123.81A34,34,0,0,1,479.18,595.26Z"
              transform="translate(-34.39 -28.82)"/>
        <rect class="cls-2" x="480.74" y="74.17" width="23.89" height="74.78" rx="8.55"
              transform="translate(-45.33 43.35) rotate(-8.29)"/>
        <rect class="cls-2" x="496.85" y="74.98" width="20.64" height="50.19" rx="7.13"
              transform="translate(-44.03 59.09) rotate(-9.81)"/>
        <rect class="cls-2" x="509.4" y="72.15" width="19.6" height="27.09" rx="7.13"
              transform="translate(-41.4 60.93) rotate(-9.81)"/>
        <rect class="cls-3" x="383.9" y="78.58" width="43.57" height="65.95" rx="12"
              transform="translate(-46.24 30.81) rotate(-8.29)"/>
        <path class="cls-3"
              d="M311.3,202.53,261.13,322.37a14.43,14.43,0,0,1-18.82,7.72l-91.86-38.45a11.54,11.54,0,0,1,8.91-21.29l23.7,9.92,10.5-25.08a14.44,14.44,0,0,1,18.83-7.72l33.67,14.1,11.23-26.82-7.36-3.08a14.42,14.42,0,0,1-7.71-18.82l1.89-4.53-3.72-1.55L238.61,211a13.24,13.24,0,1,1-24.42-10.22l14.41-34.42A13.24,13.24,0,0,1,253,176.6l-7.63,18.23,3.71,1.56,7.09-16.93A14.44,14.44,0,0,1,275,171.74l28.56,12A14.44,14.44,0,0,1,311.3,202.53Z"
              transform="translate(-34.39 -28.82)"/>
        <rect class="cls-3" x="296.4" y="186.06" width="158.73" height="192.36" rx="12"
              transform="translate(103.73 -152.02) rotate(22.71)"/>
        <rect class="cls-4" x="310.36" y="244.86" width="11.21" height="24.96" rx="4.67"
              transform="translate(89.47 -130.86) rotate(22.71)"/>
        <rect class="cls-4" x="431.99" y="297.95" width="13.25" height="27.21" rx="5.53"
              transform="translate(119.92 -174.02) rotate(22.71)"/>
        <circle class="cls-2" cx="393.04" cy="226" r="33.07"/>
        <circle class="cls-2" cx="324.78" cy="197.06" r="33.07"/>
        <circle class="cls-2" cx="356.11" cy="313.36" r="33.07"/>
        <circle class="cls-2" cx="288.52" cy="284.56" r="33.07"/>
        <rect class="cls-1" x="363.66" y="271.52" width="17.89" height="17.89" rx="7.46"
              transform="translate(102.79 -150.94) rotate(22.71)"/>
        <rect class="cls-10" x="150.28" y="204.96" width="24.79" height="55.22" rx="10.34"
              transform="translate(68.02 -73.6) rotate(22.71)"/>
        <rect class="cls-10" x="167.74" y="186.78" width="23.46" height="18.54" rx="7.1"
              transform="translate(55.22 -82.91) rotate(22.71)"/>
        <rect class="cls-7" x="198.85" y="225.18" width="32.02" height="14.22" rx="5.93"
              transform="translate(71.96 -93.76) rotate(22.71)"/>
        <rect class="cls-4" x="267.62" y="141.62" width="56.29" height="26.14" rx="10.9"
              transform="translate(48.27 -131.02) rotate(22.71)"/>
        <path class="cls-4"
              d="M271.91,125.06l-9,21.41a5.1,5.1,0,0,1-6.66,2.73l-21.42-9a5.11,5.11,0,0,1-2.72-6.66,5.12,5.12,0,0,1,6.65-2.73l16.72,7,7-16.72a5.09,5.09,0,0,1,9.39,3.93Z"
              transform="translate(-34.39 -28.82)"/>
        <rect class="cls-4" x="181.22" y="138.22" width="36.27" height="49.19" rx="12"
              transform="translate(43.93 -93.16) rotate(22.71)"/>
        <rect class="cls-4" x="87.26" y="285.25" width="36.26" height="23.18" rx="9.67"
              transform="translate(88.4 -46.49) rotate(22.71)"/>
        <rect class="cls-10" x="66.68" y="336.48" width="24.56" height="47.02" rx="10.24"
              transform="translate(110.73 -31.39) rotate(22.71)"/>
        <rect class="cls-3" x="87.12" y="351.19" width="20.49" height="73.84" rx="8.55"
              transform="translate(123.01 -36.31) rotate(22.71)"/>
        <rect class="cls-3" x="133.76" y="312.23" width="10.18" height="32.95" rx="4.24"
              transform="translate(103.29 -56.94) rotate(22.71)"/>
        <rect class="cls-3" x="142.6" y="336.1" width="7.91" height="39.78" rx="3.3"
              transform="matrix(0.92, 0.39, -0.39, 0.92, 114.43, -57.8)"/>
        <rect class="cls-3" x="183.63" y="392.89" width="177.34" height="4.64" rx="1.93"
              transform="translate(139.32 -103.31) rotate(22.71)"/>
        <rect class="cls-3" x="315.63" y="390.1" width="45.55" height="21.02" rx="8.77"
              transform="translate(146.53 -128.41) rotate(22.71)"/>
        <rect class="cls-3" x="371.11" y="423.07" width="16.57" height="23.24" rx="6.91"
              transform="matrix(0.92, 0.39, -0.39, 0.92, 162.87, -141.6)"/>
        <rect class="cls-2" x="354.74" y="447.28" width="24.11" height="34.99" rx="10.06"
              transform="translate(173.51 -134.4) rotate(22.71)"/>
        <rect class="cls-2" x="148.97" y="365.53" width="60.21" height="62.74" rx="12"
              transform="translate(132.75 -67.18) rotate(22.71)"/>
        <rect class="cls-2" x="123.16" y="427.2" width="60.21" height="62.74" rx="12"
              transform="translate(154.55 -52.43) rotate(22.71)"/>
        <rect class="cls-2" x="213.84" y="392.62" width="60.21" height="62.74" rx="12"
              transform="translate(148.24 -90.13) rotate(22.71)"/>
        <rect class="cls-2" x="188.09" y="454.14" width="60.21" height="62.74" rx="12"
              transform="translate(169.99 -75.41) rotate(22.71)"/>
        <rect class="cls-2" x="279.8" y="419.28" width="61.69" height="31.31" rx="12"
              transform="translate(157.64 -115.03) rotate(22.71)"/>
        <rect class="cls-2" x="266.21" y="451.74" width="61.69" height="31.31" rx="12"
              transform="translate(169.12 -107.27) rotate(22.71)"/>
        <rect class="cls-2" x="252.63" y="484.2" width="61.69" height="31.31" rx="12"
              transform="translate(180.59 -99.51) rotate(22.71)"/>
        <rect class="cls-2" x="239.04" y="516.65" width="61.69" height="31.31" rx="12"
              transform="translate(192.07 -91.75) rotate(22.71)"/>
        <rect class="cls-3" x="137.09" y="513.3" width="103.15" height="6.54" rx="2.73"
              transform="translate(179.7 -61.6) rotate(22.71)"/>
        <rect class="cls-3" x="372.2" y="481.36" width="8.41" height="12.08" rx="3.51"
              transform="matrix(0.92, 0.39, -0.39, 0.92, 182.99, -136.36)"/>
        <rect class="cls-2" x="334.58" y="496.19" width="30.27" height="84.14" rx="12"
              transform="translate(200.56 -122.11) rotate(22.71)"/>
        <rect class="cls-2" x="364.89" y="510" width="30.27" height="84.14" rx="12"
              transform="translate(208.25 -132.74) rotate(22.71)"/>
        <rect class="cls-10" x="154.4" y="318.83" width="29.46" height="16.27" rx="6.78"
              transform="translate(104.97 -68.77) rotate(22.71)"/>
        <rect class="cls-10" x="185.19" y="334.93" width="45.55" height="12.47" rx="5.2"
              transform="translate(113.46 -82.66) rotate(22.71)"/>
        <rect class="cls-10" x="262.21" y="367.33" width="50.93" height="24.09" rx="10.05"
              transform="translate(134.4 -110.47) rotate(22.71)"/>
        <rect class="cls-10" x="239.6" y="337.54" width="27.04" height="12.32" rx="5.12"
              transform="translate(117.95 -99.9) rotate(22.71)"/>
        <rect class="cls-10" x="255.31" y="345.91" width="5" height="30.24" rx="1.77"
              transform="translate(125 -100.37) rotate(22.71)"/>
        <rect class="cls-3" x="377.39" y="498.71" width="12.08" height="4.14" rx="1.72"
              transform="translate(188.7 -138.03) rotate(22.71)"/>
        <rect class="cls-2" x="103.23" y="411.44" width="16.59" height="61.77" rx="6.92"
              transform="translate(145.05 -37.58) rotate(22.71)"/>
        <rect class="cls-4" x="245.16" y="204.1" width="22.53" height="22.53" rx="9.4"
              transform="translate(68.65 -111.13) rotate(22.71)"/>
        <path class="cls-4"
              d="M247.87,178.64a9.27,9.27,0,1,1-6.45-12.59l1-2.27a1.56,1.56,0,1,1,2.88,1.21l-1,2.28A9.25,9.25,0,0,1,247.87,178.64Z"
              transform="translate(-34.39 -28.82)"/>
        <path class="cls-4"
              d="M276.53,190.64a9.27,9.27,0,1,1-6.44-12.59l.94-2.27a1.56,1.56,0,1,1,2.88,1.21l-1,2.27A9.27,9.27,0,0,1,276.53,190.64Z"
              transform="translate(-34.39 -28.82)"/>
        <path class="cls-4"
              d="M288.77,217a9.27,9.27,0,1,1-12.59,6.44l-2.27-.95a1.56,1.56,0,1,1,1.21-2.87l2.27.95A9.26,9.26,0,0,1,288.77,217Z"
              transform="translate(-34.39 -28.82)"/>
        <path class="cls-4"
              d="M278.1,242.46a9.27,9.27,0,1,1-12.59,6.44l-2.27-1a1.56,1.56,0,1,1,1.21-2.87l2.28.95A9.24,9.24,0,0,1,278.1,242.46Z"
              transform="translate(-34.39 -28.82)"/>
        <rect class="cls-7" x="226.21" y="275.9" width="22.53" height="22.53" rx="9.4"
              transform="translate(94.91 -98.24) rotate(22.71)"/>
        <circle class="cls-4" cx="193.12" cy="174.44" r="10.18"/>
        <rect class="cls-3" x="311.01" y="66.56" width="232.87" height="23.24" rx="9.69"
              transform="translate(-41.2 33.6) rotate(-8.29)"/>
        <rect class="cls-3" x="375.04" y="155.53" width="17.92" height="8" rx="3.34"
              transform="translate(-58.5 51) rotate(-11.51)"/>
        <rect class="cls-3" x="322.33" y="108.77" width="10.47" height="22.62" rx="4.37"
              transform="translate(-48.28 19.65) rotate(-8.29)"/>
        <rect class="cls-3" x="433.22" y="77.51" width="17.1" height="50.19" rx="7.13"
              transform="translate(-45.42 47.98) rotate(-9.81)"/>
        <rect class="cls-3" x="455.96" y="73.57" width="17.1" height="50.19" rx="7.13"
              transform="translate(-44.41 51.8) rotate(-9.81)"/>
        <rect class="cls-3" x="337.08" y="82.85" width="40.8" height="58.55" rx="12"
              transform="matrix(0.99, -0.14, 0.14, 0.99, -46.82, 23.87)"/>
        <rect class="cls-3" x="445.87" y="142.55" width="20.42" height="28.35" rx="8.52"
              transform="translate(-56.49 65.33) rotate(-11.51)"/>
        <rect class="cls-3" x="402.1" y="171.36" width="71.9" height="15.11" rx="6.3"
              transform="translate(68.66 -184.08) rotate(22.71)"/>
        <rect class="cls-3" x="401.64" y="148.56" width="40.23" height="25.08" rx="8.52"
              transform="translate(-58.06 58.57) rotate(-11.51)"/>
        <rect class="cls-2" x="318.95" y="555.05" width="4.18" height="35.87" rx="1.74"
              transform="translate(211.74 -108.34) rotate(22.71)"/>
        <rect class="cls-10" x="358.04" y="748.14" width="20.66" height="63.97" rx="8.61"
              transform="translate(277.69 -109.58) rotate(21.54)"/>
        <path class="cls-2"
              d="M371.57,608.66,303,580a7.79,7.79,0,0,0-10.17,4.17L291.61,587a7.79,7.79,0,0,0,4.17,10.16L364.71,626Z"
              transform="translate(-34.39 -28.82)"/>
        <path class="cls-2"
              d="M401.26,621.09,377.11,611l-6.87,17.32,23.83,10a7.8,7.8,0,0,0,10.17-4.17l1.19-2.85A7.8,7.8,0,0,0,401.26,621.09Z"
              transform="translate(-34.39 -28.82)"/>
        <rect class="cls-7" x="196.7" y="263.55" width="22.53" height="22.53" rx="9.4"
              transform="translate(87.85 -87.8) rotate(22.71)"/>
        <rect class="cls-2" x="227.24" y="353.98" width="27.03" height="16.27" rx="6.78"
              transform="translate(633.35 251.04) rotate(112.71)"/>
        <rect class="cls-4" x="228.45" y="234.86" width="22.54" height="16.27" rx="6.78"
              transform="translate(522.03 86.87) rotate(112.71)"/>
        <circle class="cls-11" cx="203.17" cy="258.39" r="8.02"/>
        <rect class="cls-12" x="199.34" y="253.19" width="7.8" height="9.76"/>
        <path class="cls-13"
              d="M234.67,283.61a1,1,0,0,1,.34-.71,2.37,2.37,0,0,1,.94-.48,5.1,5.1,0,0,1,1.35-.16,4.27,4.27,0,0,1,1.85.35,2.59,2.59,0,0,1,1.14,1,2.53,2.53,0,0,1,.39,1.41,3,3,0,0,1-.45,1.56,7,7,0,0,1-1.44,1.63l-2.2,1.89h4a1.81,1.81,0,0,1,.14.33,1.49,1.49,0,0,1,.06.43.86.86,0,0,1-.18.58.65.65,0,0,1-.5.19h-5.25a1.22,1.22,0,0,1-.52-1,1.29,1.29,0,0,1,.16-.66,1.77,1.77,0,0,1,.36-.47l2.37-2.16a6.73,6.73,0,0,0,1.16-1.25,1.72,1.72,0,0,0,.32-1,1.1,1.1,0,0,0-.4-.88,1.79,1.79,0,0,0-1.18-.34,3,3,0,0,0-1.12.2,3.77,3.77,0,0,0-.81.44,1.48,1.48,0,0,1-.37-.34A.89.89,0,0,1,234.67,283.61Z"
              transform="translate(-34.39 -28.82)"/>
        <circle class="cls-11" cx="173.57" cy="246" r="8.02"/>
        <rect class="cls-12" x="169.74" y="240.8" width="7.8" height="9.76"/>
        <path class="cls-13"
              d="M207.59,269.85a4,4,0,0,1,2.48.69,2.23,2.23,0,0,1,.9,1.89,2,2,0,0,1-.73,1.59,2.45,2.45,0,0,1-.63.4,2.33,2.33,0,0,1,.77.42,2.23,2.23,0,0,1,.59.73,2.28,2.28,0,0,1,.24,1.09,2.43,2.43,0,0,1-.46,1.49,2.83,2.83,0,0,1-1.27.93,4.81,4.81,0,0,1-1.85.32,6.22,6.22,0,0,1-1.61-.18,2.65,2.65,0,0,1-1-.49.92.92,0,0,1-.36-.71.88.88,0,0,1,.17-.53,1.33,1.33,0,0,1,.38-.37,4.76,4.76,0,0,0,.88.48,3.45,3.45,0,0,0,1.39.23,2.27,2.27,0,0,0,1.34-.34,1.22,1.22,0,0,0,.06-1.89,2,2,0,0,0-1.3-.34h-1.33a1,1,0,0,1-.15-.31,1.53,1.53,0,0,1-.06-.45,1.56,1.56,0,0,1,.06-.46,1.19,1.19,0,0,1,.15-.32h1.29a1.79,1.79,0,0,0,1.16-.31,1,1,0,0,0,.37-.82,1,1,0,0,0-.45-.86,2.07,2.07,0,0,0-1.23-.31,3.51,3.51,0,0,0-1.17.18,5,5,0,0,0-.83.4,1.22,1.22,0,0,1-.34-.34.8.8,0,0,1-.16-.51.89.89,0,0,1,.35-.69,2.56,2.56,0,0,1,1-.45A6,6,0,0,1,207.59,269.85Z"
              transform="translate(-34.39 -28.82)"/>
        <circle class="cls-11" cx="180.46" cy="203.48" r="8.02"/>
        <rect class="cls-12" x="176.3" y="198.28" width="7.8" height="9.76"/>
        <path class="cls-13"
              d="M216.18,234.06h-1.92V229.4l-1.7.67a1.49,1.49,0,0,1-.39-.33.86.86,0,0,1-.18-.58c0-.45.29-.78.85-1l1.87-.73h.42a1,1,0,0,1,.78.28,1.09,1.09,0,0,1,.27.78Zm-1.92-1.35h1.92v4l-.35.07a2.59,2.59,0,0,1-.51.05,1.32,1.32,0,0,1-.8-.2.84.84,0,0,1-.26-.7Z"
              transform="translate(-34.39 -28.82)"/>
        <circle class="cls-14" cx="298.33" cy="573.65" r="8.02"/>
        <rect class="cls-12" x="294.5" y="568.46" width="7.8" height="9.76"/>
        <path class="cls-13"
              d="M329.83,598.87a.91.91,0,0,1,.34-.71,2.37,2.37,0,0,1,.94-.47,5.09,5.09,0,0,1,1.35-.17,4.46,4.46,0,0,1,1.85.35,2.59,2.59,0,0,1,1.14,1,2.55,2.55,0,0,1,.39,1.41,3.06,3.06,0,0,1-.46,1.56,7.22,7.22,0,0,1-1.43,1.64l-2.2,1.89h4a1.43,1.43,0,0,1,.14.32,1.49,1.49,0,0,1,.06.43.84.84,0,0,1-.18.58.65.65,0,0,1-.5.19H330a1.24,1.24,0,0,1-.39-.43,1.32,1.32,0,0,1-.13-.6,1.29,1.29,0,0,1,.16-.66,1.58,1.58,0,0,1,.36-.47l2.37-2.15a7.43,7.43,0,0,0,1.16-1.25,1.75,1.75,0,0,0,.32-1,1.1,1.1,0,0,0-.4-.88,1.8,1.8,0,0,0-1.18-.34,3,3,0,0,0-1.12.2,4.14,4.14,0,0,0-.82.44,1.64,1.64,0,0,1-.36-.34A.81.81,0,0,1,329.83,598.87Z"
              transform="translate(-34.39 -28.82)"/>
        <circle class="cls-14" cx="354.8" cy="597.32" r="8.02"/>
        <rect class="cls-12" x="350.98" y="592.13" width="7.8" height="9.76"/>
        <path class="cls-13"
              d="M390.87,627.91H389v-4.67l-1.71.67a1.49,1.49,0,0,1-.39-.33.9.9,0,0,1-.17-.57q0-.69.84-1l1.88-.73h.42a1,1,0,0,1,.77.29,1.07,1.07,0,0,1,.28.77ZM389,626.56h1.92v4l-.35.07a2.78,2.78,0,0,1-.51,0,1.34,1.34,0,0,1-.81-.19.86.86,0,0,1-.25-.71Z"
              transform="translate(-34.39 -28.82)"/>
        <circle class="cls-14" cx="315.32" cy="509.44" r="8.02"/>
        <rect class="cls-12" x="311.5" y="504.24" width="7.8" height="9.76"/>
        <path class="cls-13"
              d="M349.34,533.29a4,4,0,0,1,2.49.69,2.23,2.23,0,0,1,.9,1.89,2,2,0,0,1-.21.93,2.35,2.35,0,0,1-.52.67,2.56,2.56,0,0,1-.64.39,2.53,2.53,0,0,1,.77.42,2.26,2.26,0,0,1,.6.73,2.68,2.68,0,0,1-.23,2.59,2.89,2.89,0,0,1-1.26.93,5.09,5.09,0,0,1-1.85.32,5.9,5.9,0,0,1-1.62-.19,2.6,2.6,0,0,1-1-.49.92.92,0,0,1-.36-.71.88.88,0,0,1,.16-.53,1.24,1.24,0,0,1,.39-.37,4.19,4.19,0,0,0,.88.48,3.4,3.4,0,0,0,1.39.24,2.22,2.22,0,0,0,1.33-.35,1.23,1.23,0,0,0,.07-1.89,2,2,0,0,0-1.3-.34H348a.81.81,0,0,1-.14-.31,1.51,1.51,0,0,1-.06-.44,1.58,1.58,0,0,1,.06-.47,1,1,0,0,1,.14-.32h1.3a1.82,1.82,0,0,0,1.15-.3,1,1,0,0,0,.37-.83,1,1,0,0,0-.44-.86,2.19,2.19,0,0,0-1.23-.31,3.19,3.19,0,0,0-1.17.19,3.87,3.87,0,0,0-.84.4,1.62,1.62,0,0,1-.34-.35.85.85,0,0,1-.15-.51.87.87,0,0,1,.35-.69,2.5,2.5,0,0,1,1-.45A6.07,6.07,0,0,1,349.34,533.29Z"
              transform="translate(-34.39 -28.82)"/>
        <circle class="cls-14" cx="347.25" cy="519.39" r="8.02"/>
        <rect class="cls-12" x="343.43" y="514.19" width="7.8" height="9.76"/>
        <path class="cls-13"
              d="M381.27,543.24a4.07,4.07,0,0,1,2.49.68,2.26,2.26,0,0,1,.9,1.9,2.05,2.05,0,0,1-.21.93,2.19,2.19,0,0,1-.52.67,2.7,2.7,0,0,1-.63.39,2.43,2.43,0,0,1,.77.42,2.23,2.23,0,0,1,.59.73,2.28,2.28,0,0,1,.23,1.09,2.42,2.42,0,0,1-.45,1.49,2.83,2.83,0,0,1-1.27.93,4.85,4.85,0,0,1-1.85.32,6.35,6.35,0,0,1-1.62-.18,2.6,2.6,0,0,1-1-.49.93.93,0,0,1-.36-.71.82.82,0,0,1,.17-.53,1.33,1.33,0,0,1,.38-.37,4.46,4.46,0,0,0,.88.48,3.42,3.42,0,0,0,1.39.23,2.27,2.27,0,0,0,1.34-.34,1.22,1.22,0,0,0,.06-1.89,2,2,0,0,0-1.3-.34h-1.34a1.29,1.29,0,0,1-.14-.31,1.53,1.53,0,0,1-.06-.45,1.56,1.56,0,0,1,.06-.46,1.61,1.61,0,0,1,.14-.32h1.3a1.74,1.74,0,0,0,1.15-.31,1,1,0,0,0,.37-.82,1,1,0,0,0-.44-.86,2.09,2.09,0,0,0-1.23-.31,3.51,3.51,0,0,0-1.17.18,5,5,0,0,0-.83.4,1.4,1.4,0,0,1-.35-.34.85.85,0,0,1-.15-.51.89.89,0,0,1,.35-.69,2.58,2.58,0,0,1,1-.45A5.58,5.58,0,0,1,381.27,543.24Z"
              transform="translate(-34.39 -28.82)"/>
        <circle class="cls-14" cx="332.68" cy="435.96" r="8.02"/>
        <rect class="cls-12" x="328.04" y="430.56" width="8.72" height="9.99"/>
        <path class="cls-13"
              d="M363.12,465.24,367,460.1a2.83,2.83,0,0,1,.5-.12,3.22,3.22,0,0,1,.5,0,2.39,2.39,0,0,1,.66.09.93.93,0,0,1,.69,1v4.58h1.33a1.43,1.43,0,0,1,.14.32,1.33,1.33,0,0,1,.07.45.86.86,0,0,1-.18.6.69.69,0,0,1-.51.2h-.85v2l-.36.07a2.74,2.74,0,0,1-.48,0,1.63,1.63,0,0,1-.78-.15q-.27-.15-.27-.66v-1.29h-3.91a1.18,1.18,0,0,1-.62-1.08,2.35,2.35,0,0,1,0-.45A1.07,1.07,0,0,1,363.12,465.24Zm4.42.37v-3.7h0l-2.54,3.7Z"
              transform="translate(-34.39 -28.82)"/>
        <circle class="cls-14" cx="276.25" cy="406.12" r="8.02"/>
        <rect class="cls-12" x="271.89" y="401.13" width="8.72" height="9.99"/>
        <path class="cls-13"
              d="M310.06,430.6l-.39,1.22-.19,2.37a5.35,5.35,0,0,1,.63-.19,3.15,3.15,0,0,1,.85-.1,3.53,3.53,0,0,1,1.68.37,2.45,2.45,0,0,1,1.06,1,3.29,3.29,0,0,1,0,3.11,2.78,2.78,0,0,1-1.18,1.12,4.29,4.29,0,0,1-2,.42,5.65,5.65,0,0,1-1.56-.19,2.58,2.58,0,0,1-1.05-.52,1,1,0,0,1-.37-.74.84.84,0,0,1,.21-.58,1.25,1.25,0,0,1,.43-.35,4.67,4.67,0,0,0,.92.56,2.93,2.93,0,0,0,1.32.26,1.77,1.77,0,0,0,1.3-.43,1.46,1.46,0,0,0,.45-1.09,1.37,1.37,0,0,0-.43-1.05,1.75,1.75,0,0,0-1.22-.39,2.22,2.22,0,0,0-.81.13,7.13,7.13,0,0,0-.7.31,1.46,1.46,0,0,1-.92-.33,1.09,1.09,0,0,1-.34-.87v-.17a2.54,2.54,0,0,1,0-.26l.21-2.56a1.26,1.26,0,0,1,.31-.79,1,1,0,0,1,.77-.29Zm-.86,1.59V430.6h4.25a1,1,0,0,1,.15.31,1.25,1.25,0,0,1,.07.45,1,1,0,0,1-.19.62.67.67,0,0,1-.52.21Z"
              transform="translate(-34.39 -28.82)"/>
        <circle class="cls-14" cx="262.66" cy="438.58" r="8.02"/>
        <rect class="cls-12" x="258.3" y="433.58" width="8.72" height="9.99"/>
        <path class="cls-13"
              d="M296.48,463.06l-.4,1.22-.19,2.37c.18-.07.39-.13.64-.2a4.06,4.06,0,0,1,2.52.27,2.53,2.53,0,0,1,1.07,1,3.17,3.17,0,0,1,.37,1.57,3.13,3.13,0,0,1-.39,1.55,2.94,2.94,0,0,1-1.19,1.12,4.28,4.28,0,0,1-2,.42,6.06,6.06,0,0,1-1.56-.19,2.52,2.52,0,0,1-1-.53,1,1,0,0,1-.37-.74.88.88,0,0,1,.2-.57,1.46,1.46,0,0,1,.44-.36,4.17,4.17,0,0,0,.91.57,3.09,3.09,0,0,0,1.33.26,1.79,1.79,0,0,0,1.3-.43,1.52,1.52,0,0,0,.44-1.1,1.33,1.33,0,0,0-.43-1,1.73,1.73,0,0,0-1.21-.4,2.31,2.31,0,0,0-.82.14,6.86,6.86,0,0,0-.69.3,1.49,1.49,0,0,1-.93-.33,1.07,1.07,0,0,1-.34-.86V467c0-.06,0-.15,0-.26l.2-2.56a1.21,1.21,0,0,1,.32-.78,1,1,0,0,1,.77-.29Zm-.86,1.58v-1.58h4.24a1.27,1.27,0,0,1,.16.31,1.51,1.51,0,0,1,.06.44.89.89,0,0,1-.19.62.66.66,0,0,1-.52.21Z"
              transform="translate(-34.39 -28.82)"/>
        <circle class="cls-14" cx="249.08" cy="471.04" r="8.02"/>
        <rect class="cls-12" x="244.72" y="466.04" width="8.72" height="9.99"/>
        <path class="cls-13"
              d="M282.89,495.51l-.39,1.22-.19,2.37a6.21,6.21,0,0,1,.63-.19,3.15,3.15,0,0,1,.85-.1,3.46,3.46,0,0,1,1.67.37,2.42,2.42,0,0,1,1.07,1,3.17,3.17,0,0,1,.37,1.57,3.09,3.09,0,0,1-.39,1.54,2.84,2.84,0,0,1-1.18,1.12,4.29,4.29,0,0,1-2,.42,5.65,5.65,0,0,1-1.56-.19,2.58,2.58,0,0,1-1.05-.52,1,1,0,0,1-.37-.74.84.84,0,0,1,.21-.58,1.25,1.25,0,0,1,.43-.35,4.67,4.67,0,0,0,.92.56,2.93,2.93,0,0,0,1.32.27,1.78,1.78,0,0,0,1.3-.44,1.45,1.45,0,0,0,.45-1.09,1.37,1.37,0,0,0-.43-1,1.75,1.75,0,0,0-1.22-.39,2.22,2.22,0,0,0-.81.13,7.13,7.13,0,0,0-.7.31,1.44,1.44,0,0,1-.92-.33,1.09,1.09,0,0,1-.34-.87v-.17a2.54,2.54,0,0,1,0-.26l.2-2.56a1.32,1.32,0,0,1,.32-.79,1,1,0,0,1,.77-.29ZM282,497.1v-1.59h4.25a1,1,0,0,1,.15.32,1.45,1.45,0,0,1,.07.44.94.94,0,0,1-.19.62.68.68,0,0,1-.53.21Z"
              transform="translate(-34.39 -28.82)"/>
        <circle class="cls-14" cx="235.49" cy="503.49" r="8.02"/>
        <rect class="cls-12" x="231.13" y="498.49" width="8.72" height="9.99"/>
        <path class="cls-13"
              d="M269.31,528l-.4,1.22-.19,2.37c.18-.07.39-.13.64-.2a4.06,4.06,0,0,1,2.52.27,2.62,2.62,0,0,1,1.07,1,3.22,3.22,0,0,1,.37,1.57,3.12,3.12,0,0,1-.39,1.54,2.93,2.93,0,0,1-1.19,1.12,4.28,4.28,0,0,1-2,.42,6.19,6.19,0,0,1-1.57-.19,2.59,2.59,0,0,1-1-.52,1,1,0,0,1-.37-.75.83.83,0,0,1,.2-.57,1.46,1.46,0,0,1,.44-.36,4.17,4.17,0,0,0,.91.57,3.09,3.09,0,0,0,1.33.26,1.79,1.79,0,0,0,1.3-.43,1.49,1.49,0,0,0,.44-1.09,1.34,1.34,0,0,0-.43-1,1.73,1.73,0,0,0-1.21-.39,2.31,2.31,0,0,0-.82.13,6.86,6.86,0,0,0-.69.3,1.55,1.55,0,0,1-.93-.32A1.09,1.09,0,0,1,267,532v-.17c0-.07,0-.16,0-.27l.2-2.56a1.21,1.21,0,0,1,.32-.78,1,1,0,0,1,.77-.29Zm-.86,1.58V528h4.24a1.27,1.27,0,0,1,.16.31,1.51,1.51,0,0,1,.06.44.87.87,0,0,1-.19.62.66.66,0,0,1-.52.21Z"
              transform="translate(-34.39 -28.82)"/>
        <circle class="cls-14" cx="209.55" cy="395.18" r="8.02"/>
        <polyline class="cls-12" points="213.91 399.97 205.19 399.97 205.19 389.98 213.91 389.98 213.91 399.97"/>
        <path class="cls-13"
              d="M246.84,420.38a1.08,1.08,0,0,1-.13.48.75.75,0,0,1-.3.33,6.62,6.62,0,0,0-.79-.27,3.55,3.55,0,0,0-.86-.1,2.43,2.43,0,0,0-1.19.28,2.12,2.12,0,0,0-.83.85,3.46,3.46,0,0,0-.37,1.44,3.41,3.41,0,0,1,.85-.49,3,3,0,0,1,1.26-.25,3.08,3.08,0,0,1,2.18.78,2.88,2.88,0,0,1,.84,2.24,3.17,3.17,0,0,1-.4,1.6,2.76,2.76,0,0,1-1.15,1.12,3.89,3.89,0,0,1-1.85.41,3.64,3.64,0,0,1-1.92-.5,3.3,3.3,0,0,1-1.28-1.51,6,6,0,0,1-.46-2.51,7.36,7.36,0,0,1,.32-2.29,4.19,4.19,0,0,1,.88-1.56,3.55,3.55,0,0,1,1.32-.89,4.3,4.3,0,0,1,1.61-.29,4.68,4.68,0,0,1,1.18.13,1.86,1.86,0,0,1,.8.37A.82.82,0,0,1,246.84,420.38Zm-2.74,6.86a1.37,1.37,0,0,0,1.06-.42,1.58,1.58,0,0,0,.4-1.15,1.53,1.53,0,0,0-.4-1.12,1.46,1.46,0,0,0-1.06-.39,2.13,2.13,0,0,0-1,.23,2.21,2.21,0,0,0-.73.57l0,.16a2.37,2.37,0,0,0,.46,1.57A1.51,1.51,0,0,0,244.1,427.24Z"
              transform="translate(-34.39 -28.82)"/>
        <circle class="cls-14" cx="183.8" cy="456.9" r="8.02"/>
        <polyline class="cls-12" points="188.16 461.69 179.44 461.69 179.44 451.7 188.16 451.7 188.16 461.69"/>
        <path class="cls-13"
              d="M221.09,482.1a.91.91,0,0,1-.13.48.78.78,0,0,1-.3.34,4.31,4.31,0,0,0-.79-.27,3.12,3.12,0,0,0-.86-.11,2.43,2.43,0,0,0-1.19.28,2.12,2.12,0,0,0-.83.85,3.46,3.46,0,0,0-.37,1.44,3.75,3.75,0,0,1,.85-.49,3,3,0,0,1,1.26-.25,3.08,3.08,0,0,1,2.18.78,2.92,2.92,0,0,1,.85,2.24,3.15,3.15,0,0,1-.41,1.6,2.76,2.76,0,0,1-1.15,1.12,3.86,3.86,0,0,1-1.85.41,3.64,3.64,0,0,1-1.92-.5,3.3,3.3,0,0,1-1.28-1.51,6,6,0,0,1-.46-2.51,7.33,7.33,0,0,1,.32-2.28,4.12,4.12,0,0,1,.89-1.57,3.43,3.43,0,0,1,1.31-.89,4.3,4.3,0,0,1,1.61-.29,4.68,4.68,0,0,1,1.18.13,1.87,1.87,0,0,1,.8.38A.78.78,0,0,1,221.09,482.1ZM218.35,489a1.37,1.37,0,0,0,1.06-.42,1.58,1.58,0,0,0,.4-1.15,1.55,1.55,0,0,0-.4-1.12,1.46,1.46,0,0,0-1.06-.39,2.13,2.13,0,0,0-1,.23,2.21,2.21,0,0,0-.73.57l0,.16a2.37,2.37,0,0,0,.46,1.57A1.51,1.51,0,0,0,218.35,489Z"
              transform="translate(-34.39 -28.82)"/>
        <circle class="cls-14" cx="118.87" cy="429.95" r="8.02"/>
        <polyline class="cls-12" points="123.23 434.75 114.51 434.75 114.51 424.75 123.23 424.75 123.23 434.75"/>
        <path class="cls-13"
              d="M156.16,455.16a1,1,0,0,1-.13.48.86.86,0,0,1-.29.33,7.49,7.49,0,0,0-.8-.27,3.56,3.56,0,0,0-.86-.11,2.44,2.44,0,0,0-1.19.29,2.12,2.12,0,0,0-.83.85,3.57,3.57,0,0,0-.37,1.44,3.73,3.73,0,0,1,.85-.5,3.15,3.15,0,0,1,1.26-.24,3.08,3.08,0,0,1,2.18.77,2.89,2.89,0,0,1,.85,2.25,3.3,3.3,0,0,1-.4,1.6,2.91,2.91,0,0,1-1.16,1.12,3.86,3.86,0,0,1-1.85.41,3.58,3.58,0,0,1-1.92-.51,3.23,3.23,0,0,1-1.28-1.5,6,6,0,0,1-.46-2.52,7.33,7.33,0,0,1,.32-2.28,4.07,4.07,0,0,1,.89-1.56,3.58,3.58,0,0,1,1.31-.9,4.51,4.51,0,0,1,1.61-.29,5.13,5.13,0,0,1,1.18.13,1.93,1.93,0,0,1,.8.38A.82.82,0,0,1,156.16,455.16ZM153.42,462a1.41,1.41,0,0,0,1.07-.42,1.64,1.64,0,0,0,.39-1.15,1.48,1.48,0,0,0-.4-1.12,1.46,1.46,0,0,0-1.06-.39,2.15,2.15,0,0,0-1,.22,2.11,2.11,0,0,0-.73.58l0,.16a2.37,2.37,0,0,0,.46,1.57A1.51,1.51,0,0,0,153.42,462Z"
              transform="translate(-34.39 -28.82)"/>
        <circle class="cls-14" cx="144.68" cy="368.29" r="8.02"/>
        <polyline class="cls-12" points="149.04 373.08 140.32 373.08 140.32 363.09 149.04 363.09 149.04 373.08"/>
        <path class="cls-13"
              d="M182,393.49a1,1,0,0,1-.12.48.78.78,0,0,1-.3.34,4.58,4.58,0,0,0-.79-.27,3.7,3.7,0,0,0-.87-.11,2.39,2.39,0,0,0-1.18.28,2.12,2.12,0,0,0-.83.85,3.46,3.46,0,0,0-.37,1.44,3.44,3.44,0,0,1,.84-.49,3,3,0,0,1,1.27-.25,3.08,3.08,0,0,1,2.18.78,2.92,2.92,0,0,1,.84,2.25,3.19,3.19,0,0,1-.4,1.6,3,3,0,0,1-1.15,1.12,3.89,3.89,0,0,1-1.85.4,3.58,3.58,0,0,1-1.93-.5,3.34,3.34,0,0,1-1.28-1.5,6.17,6.17,0,0,1-.46-2.52,7.33,7.33,0,0,1,.32-2.28,4.33,4.33,0,0,1,.89-1.57,3.55,3.55,0,0,1,1.32-.89,4.46,4.46,0,0,1,1.6-.29,4.76,4.76,0,0,1,1.19.13,1.93,1.93,0,0,1,.8.38A.77.77,0,0,1,182,393.49Zm-2.73,6.87a1.39,1.39,0,0,0,1.06-.42,1.65,1.65,0,0,0,.39-1.15,1.48,1.48,0,0,0-.4-1.12,1.42,1.42,0,0,0-1-.4,2.17,2.17,0,0,0-1,.23,2.07,2.07,0,0,0-.72.57v.16a2.35,2.35,0,0,0,.47,1.57A1.51,1.51,0,0,0,179.24,400.36Z"
              transform="translate(-34.39 -28.82)"/>
        <circle class="cls-14" cx="77.13" cy="413.51" r="9.27"/>
        <polyline class="cls-12" points="86.04 417.77 68.21 417.77 68.21 407.78 86.04 407.78 86.04 417.77"/>
        <path class="cls-13"
              d="M109.94,438.18a1,1,0,0,1-.12.48.78.78,0,0,1-.3.34,4.31,4.31,0,0,0-.79-.27,3.62,3.62,0,0,0-.86-.11,2.41,2.41,0,0,0-1.19.28,2.19,2.19,0,0,0-.83.85,3.46,3.46,0,0,0-.37,1.44,4.34,4.34,0,0,1,.84-.49,3.16,3.16,0,0,1,1.27-.25,3.08,3.08,0,0,1,2.18.78,2.92,2.92,0,0,1,.84,2.25,3.19,3.19,0,0,1-.4,1.6,2.89,2.89,0,0,1-1.15,1.12,3.89,3.89,0,0,1-1.85.4,3.58,3.58,0,0,1-1.93-.5,3.27,3.27,0,0,1-1.27-1.5,6,6,0,0,1-.46-2.52,7,7,0,0,1,.32-2.28,4.19,4.19,0,0,1,.88-1.56,3.57,3.57,0,0,1,1.32-.9,4.47,4.47,0,0,1,1.61-.29,4.68,4.68,0,0,1,1.18.13,1.87,1.87,0,0,1,.8.38A.77.77,0,0,1,109.94,438.18Zm-2.73,6.87a1.34,1.34,0,0,0,1.06-.43,1.61,1.61,0,0,0,.4-1.14,1.48,1.48,0,0,0-.41-1.12,1.42,1.42,0,0,0-1.05-.4,2.13,2.13,0,0,0-1,.23,2.11,2.11,0,0,0-.73.57v.16a2.4,2.4,0,0,0,.47,1.58A1.55,1.55,0,0,0,107.21,445.05Z"
              transform="translate(-34.39 -28.82)"/>
        <path class="cls-13"
              d="M115.72,439.29h-.09l-.36,1.08-.43,1.26c-.15.44-.29.86-.42,1.28l-.24,1.16q-.09.29-.18.6l-.18.62c-.06.21-.12.4-.18.59s-.09.36-.13.5l-.35.11a2.11,2.11,0,0,1-.47,0,1.46,1.46,0,0,1-.85-.21.67.67,0,0,1-.31-.6,1.13,1.13,0,0,1,.06-.36,3.44,3.44,0,0,0,.11-.41c.1-.33.23-.73.39-1.21s.34-1,.53-1.58.39-1.13.59-1.69.38-1.07.56-1.54.32-.86.43-1.15a2.63,2.63,0,0,1,.62-.23,3.36,3.36,0,0,1,.82-.11,3.12,3.12,0,0,1,1,.17.84.84,0,0,1,.58.55c.2.51.41,1.11.63,1.79s.45,1.39.68,2.13l.66,2.15c.21.7.4,1.33.56,1.89a1,1,0,0,1-.43.29,2,2,0,0,1-.67.11,1.24,1.24,0,0,1-.8-.2,1.19,1.19,0,0,1-.35-.62L117,444l-.22-1.13c-.14-.45-.27-.89-.41-1.33s-.26-.84-.38-1.22S115.8,439.57,115.72,439.29Zm-2.45,5.09.79-1.63h3.49l.28,1.63Z"
              transform="translate(-34.39 -28.82)"/>
        <circle class="cls-14" cx="206.36" cy="333.3" r="8.02"/>
        <polyline class="cls-12" points="210.71 338.09 202 338.09 202 328.1 210.71 328.1 210.71 338.09"/>
        <path class="cls-13"
              d="M238.24,357.57h5.32a1.23,1.23,0,0,1,.36.36,1,1,0,0,1,.15.56,2.14,2.14,0,0,1-.17.81l-3.43,7.49h-.56a1.47,1.47,0,0,1-.82-.21.71.71,0,0,1-.32-.65,1.37,1.37,0,0,1,.11-.54c.08-.19.18-.41.31-.66l2.73-5.59h-4.16a1.81,1.81,0,0,1-.14-.33,1.27,1.27,0,0,1-.08-.44.86.86,0,0,1,.2-.61A.69.69,0,0,1,238.24,357.57Z"
              transform="translate(-34.39 -28.82)"/>
        <circle class="cls-14" cx="288.52" cy="284.56" r="8.02"/>
        <polyline class="cls-12" points="292.88 289.35 284.17 289.35 284.17 279.36 292.88 279.36 292.88 289.35"/>
        <path class="cls-13"
              d="M321.73,312.93l1-.26a3.13,3.13,0,0,0,1.28-.51,1.08,1.08,0,0,0,.45-.9,1,1,0,0,0-.4-.86,1.74,1.74,0,0,0-1.09-.3,1.66,1.66,0,0,0-1.05.32,1,1,0,0,0-.4.84,1.12,1.12,0,0,0,.23.71,1.51,1.51,0,0,0,.63.43,4.59,4.59,0,0,0,.9.2l1.1.42a4.25,4.25,0,0,1,1.06.44,2.5,2.5,0,0,1,.83.79,2.58,2.58,0,0,1-.13,2.7,2.91,2.91,0,0,1-1.27.93,5.21,5.21,0,0,1-1.9.32,5.27,5.27,0,0,1-1.89-.32,2.73,2.73,0,0,1-1.25-.93,2.37,2.37,0,0,1-.45-1.46,2.28,2.28,0,0,1,.36-1.3,2.78,2.78,0,0,1,.9-.84A3.45,3.45,0,0,1,321.73,312.93Zm2.69.43-1.22.39a2.73,2.73,0,0,0-1.43.58,1.38,1.38,0,0,0-.49,1.08,1.14,1.14,0,0,0,.45.95,1.92,1.92,0,0,0,1.2.34,2,2,0,0,0,1.22-.33,1.11,1.11,0,0,0,.47-1,1.3,1.3,0,0,0-.63-1.14,3.46,3.46,0,0,0-1.74-.48l-.68-.39a3.07,3.07,0,0,1-1.46-.79,1.92,1.92,0,0,1-.53-1.42,2.3,2.3,0,0,1,.42-1.38,2.71,2.71,0,0,1,1.17-.88,4.57,4.57,0,0,1,1.76-.31,4,4,0,0,1,2.48.68,2.21,2.21,0,0,1,.91,1.89,1.88,1.88,0,0,1-.55,1.42A3.19,3.19,0,0,1,324.42,313.36Z"
              transform="translate(-34.39 -28.82)"/>
        <circle class="cls-14" cx="356.11" cy="313.56" r="8.02"/>
        <polyline class="cls-12" points="360.47 318.35 351.75 318.35 351.75 308.36 360.47 308.36 360.47 318.35"/>
        <path class="cls-13"
              d="M389.31,341.93l1-.26a3.24,3.24,0,0,0,1.29-.51,1.1,1.1,0,0,0,.44-.9,1,1,0,0,0-.39-.86,1.76,1.76,0,0,0-1.09-.3,1.62,1.62,0,0,0-1.06.32,1,1,0,0,0-.4.84,1.07,1.07,0,0,0,.24.71,1.39,1.39,0,0,0,.63.43,4.33,4.33,0,0,0,.89.2l1.11.42a4,4,0,0,1,1.05.44,2.32,2.32,0,0,1,.83.79,2.23,2.23,0,0,1,.33,1.26,2.34,2.34,0,0,1-.46,1.44,2.91,2.91,0,0,1-1.27.93,5.74,5.74,0,0,1-3.78,0,2.71,2.71,0,0,1-1.26-.93,2.36,2.36,0,0,1-.44-1.46,2.26,2.26,0,0,1,.35-1.3,2.78,2.78,0,0,1,.9-.84A3.53,3.53,0,0,1,389.31,341.93Zm2.69.42-1.22.4a2.73,2.73,0,0,0-1.43.58,1.37,1.37,0,0,0-.49,1.07,1.14,1.14,0,0,0,.45,1,2.34,2.34,0,0,0,2.43,0,1.1,1.1,0,0,0,.46-1,1.3,1.3,0,0,0-.63-1.13,3.46,3.46,0,0,0-1.74-.48l-.68-.39a3,3,0,0,1-1.45-.79,1.93,1.93,0,0,1-.54-1.42,2.3,2.3,0,0,1,.42-1.38,2.68,2.68,0,0,1,1.18-.88,4.53,4.53,0,0,1,1.76-.32,4,4,0,0,1,2.48.69,2.23,2.23,0,0,1,.9,1.89,1.88,1.88,0,0,1-.55,1.42A3.07,3.07,0,0,1,392,342.35Z"
              transform="translate(-34.39 -28.82)"/>
        <circle class="cls-14" cx="393.04" cy="226.2" r="8.02"/>
        <polyline class="cls-12" points="397.4 230.99 388.69 230.99 388.69 221 397.4 221 397.4 230.99"/>
        <path class="cls-13"
              d="M426.25,254.57l1-.26a3.13,3.13,0,0,0,1.28-.51,1.08,1.08,0,0,0,.45-.9,1,1,0,0,0-.39-.86,1.8,1.8,0,0,0-1.1-.3,1.66,1.66,0,0,0-1.05.32,1,1,0,0,0-.4.84,1.12,1.12,0,0,0,.23.71,1.48,1.48,0,0,0,.64.43,4.33,4.33,0,0,0,.89.2l1.1.42a4.25,4.25,0,0,1,1.06.44,2.5,2.5,0,0,1,.83.79,2.23,2.23,0,0,1,.32,1.26,2.33,2.33,0,0,1-.45,1.44,2.91,2.91,0,0,1-1.27.93,5.21,5.21,0,0,1-1.9.32,5.27,5.27,0,0,1-1.89-.32,2.73,2.73,0,0,1-1.25-.93,2.35,2.35,0,0,1-.45-1.46,2.28,2.28,0,0,1,.36-1.3,2.78,2.78,0,0,1,.9-.84A3.45,3.45,0,0,1,426.25,254.57Zm2.69.43-1.22.39a2.81,2.81,0,0,0-1.43.58,1.38,1.38,0,0,0-.49,1.08,1.14,1.14,0,0,0,.45.95,1.92,1.92,0,0,0,1.2.34,2.08,2.08,0,0,0,1.23-.33,1.12,1.12,0,0,0,.46-1,1.3,1.3,0,0,0-.63-1.14,3.46,3.46,0,0,0-1.74-.48l-.68-.39a3.07,3.07,0,0,1-1.46-.79,1.92,1.92,0,0,1-.53-1.42,2.25,2.25,0,0,1,.42-1.37,2.65,2.65,0,0,1,1.17-.89,4.61,4.61,0,0,1,1.76-.31,4,4,0,0,1,2.48.68,2.22,2.22,0,0,1,.91,1.89,1.88,1.88,0,0,1-.55,1.42A3.19,3.19,0,0,1,428.94,255Z"
              transform="translate(-34.39 -28.82)"/>
        <circle class="cls-14" cx="324.78" cy="197.27" r="8.02"/>
        <polyline class="cls-12" points="329.14 202.06 320.42 202.06 320.42 192.07 329.14 192.07 329.14 202.06"/>
        <path class="cls-13"
              d="M358,225.64l1-.26a3.24,3.24,0,0,0,1.29-.52,1.08,1.08,0,0,0,.44-.89,1,1,0,0,0-.39-.86,1.76,1.76,0,0,0-1.09-.3,1.67,1.67,0,0,0-1.06.31,1.06,1.06,0,0,0-.39.85,1,1,0,0,0,.23.7,1.32,1.32,0,0,0,.63.43,4,4,0,0,0,.9.21l1.1.42a4,4,0,0,1,1,.43,2.44,2.44,0,0,1,.83.8,2.22,2.22,0,0,1,.33,1.25,2.29,2.29,0,0,1-.46,1.45,2.8,2.8,0,0,1-1.26.92,5.77,5.77,0,0,1-3.79,0,2.8,2.8,0,0,1-1.26-.92,2.43,2.43,0,0,1-.44-1.46,2.33,2.33,0,0,1,.35-1.3,2.64,2.64,0,0,1,.91-.85A3.61,3.61,0,0,1,358,225.64Zm2.69.42-1.22.39A2.78,2.78,0,0,0,358,227a1.38,1.38,0,0,0-.5,1.07,1.11,1.11,0,0,0,.45.95,2,2,0,0,0,1.21.35,2.07,2.07,0,0,0,1.22-.34,1.11,1.11,0,0,0,.47-1,1.29,1.29,0,0,0-.64-1.13,3.45,3.45,0,0,0-1.73-.48l-.69-.39a3,3,0,0,1-1.45-.79,2,2,0,0,1-.54-1.42,2.26,2.26,0,0,1,.42-1.38,2.76,2.76,0,0,1,1.18-.89,4.73,4.73,0,0,1,1.76-.31,4,4,0,0,1,2.48.69,2.23,2.23,0,0,1,.91,1.89,1.85,1.85,0,0,1-.56,1.41A2.89,2.89,0,0,1,360.67,226.06Z"
              transform="translate(-34.39 -28.82)"/>
        <polyline class="cls-12" points="376.57 95.01 367.85 95.01 367.85 85.02 376.57 85.02 376.57 95.01"/>
        <circle class="cls-14" cx="460.88" cy="92.76" r="8.02"/>
        <path class="cls-13"
              d="M492.24,125.23a1.11,1.11,0,0,1,.12-.49.78.78,0,0,1,.3-.34,5.38,5.38,0,0,0,.81.29,3.59,3.59,0,0,0,.93.12,2.73,2.73,0,0,0,1.27-.28,2,2,0,0,0,.87-.85,2.9,2.9,0,0,0,.3-1.46,1.74,1.74,0,0,1-.45.32,2.84,2.84,0,0,1-.66.27,3.36,3.36,0,0,1-.88.11,4,4,0,0,1-1.58-.31,2.5,2.5,0,0,1-1.13-1,3.12,3.12,0,0,1-.41-1.66,3.2,3.2,0,0,1,.41-1.62,3,3,0,0,1,1.18-1.12,3.79,3.79,0,0,1,1.8-.4,3.62,3.62,0,0,1,1.94.5,3.34,3.34,0,0,1,1.28,1.5,6.14,6.14,0,0,1,.45,2.5,6.63,6.63,0,0,1-.53,2.87,3.64,3.64,0,0,1-1.46,1.65,4.33,4.33,0,0,1-2.17.53,4.21,4.21,0,0,1-1.72-.3A.93.93,0,0,1,492.24,125.23Zm3-3.81a1.91,1.91,0,0,0,.94-.24,1.67,1.67,0,0,0,.63-.56l0,0a2.64,2.64,0,0,0-.43-1.63,1.48,1.48,0,0,0-1.25-.58,1.4,1.4,0,0,0-1.06.42,1.52,1.52,0,0,0-.4,1.12,1.35,1.35,0,0,0,.46,1.13A1.71,1.71,0,0,0,495.25,121.42Z"
              transform="translate(-34.39 -28.82)"/>
        <polyline class="cls-12" points="475.36 78.78 457.53 78.78 457.53 68.79 475.36 68.79 475.36 78.78"/>
        <circle class="cls-14" cx="468.9" cy="68.53" r="9.27"/>
        <path class="cls-13"
              d="M500.82,99.52H498.9V94.85l-1.7.67a1.38,1.38,0,0,1-.4-.33.9.9,0,0,1-.17-.57q0-.69.84-1l1.88-.73h.42A1,1,0,0,1,500.82,94Zm-1.92-1.36h1.92v4l-.35.08a4.06,4.06,0,0,1-.51,0,1.34,1.34,0,0,1-.81-.2.83.83,0,0,1-.25-.7Z"
              transform="translate(-34.39 -28.82)"/>
        <path class="cls-13"
              d="M506.42,102.35a3.77,3.77,0,0,1-2-.53,3.42,3.42,0,0,1-1.34-1.59,6.32,6.32,0,0,1-.49-2.66,6.13,6.13,0,0,1,.51-2.68,3.59,3.59,0,0,1,1.38-1.58,3.89,3.89,0,0,1,3.85,0,3.64,3.64,0,0,1,1.38,1.58,6.35,6.35,0,0,1,.5,2.68,6.47,6.47,0,0,1-.48,2.65,3.59,3.59,0,0,1-1.35,1.6A3.7,3.7,0,0,1,506.42,102.35Zm1.86-4.78a5.68,5.68,0,0,0-.24-1.8,2.27,2.27,0,0,0-.67-1.07,1.48,1.48,0,0,0-1-.35,1.39,1.39,0,0,0-.95.36,2.34,2.34,0,0,0-.66,1.07,5.65,5.65,0,0,0-.24,1.79A4.77,4.77,0,0,0,505,100a1.51,1.51,0,0,0,1.37.81,1.54,1.54,0,0,0,1.39-.81A4.76,4.76,0,0,0,508.28,97.57Z"
              transform="translate(-34.39 -28.82)"/>
        <circle class="cls-15" cx="404.22" cy="282.74" r="8.02"/>
        <polyline class="cls-12" points="408.32 287.53 399.61 287.53 399.61 277.53 408.32 277.53 408.32 287.53"/>
        <path class="cls-13"
              d="M440,313.52H438v-4.67l-1.7.67a1.28,1.28,0,0,1-.39-.32.87.87,0,0,1-.17-.58q0-.67.84-1l1.88-.72h.42a1,1,0,0,1,.77.28,1.09,1.09,0,0,1,.27.78ZM438,312.17H440v4l-.35.07a2.6,2.6,0,0,1-.5,0,1.34,1.34,0,0,1-.81-.19.85.85,0,0,1-.26-.71Z"
              transform="translate(-34.39 -28.82)"/>
        <circle class="cls-15" cx="240.29" cy="222.19" r="8.02"/>
        <rect class="cls-12" x="236.46" y="217" width="7.8" height="9.76"/>
        <path class="cls-13"
              d="M271.79,247.41a.91.91,0,0,1,.34-.71,2.37,2.37,0,0,1,.94-.47,5.09,5.09,0,0,1,1.35-.17,4.46,4.46,0,0,1,1.85.35,2.49,2.49,0,0,1,1.53,2.37,3.06,3.06,0,0,1-.46,1.56,7.22,7.22,0,0,1-1.43,1.64l-2.2,1.89h4a1.67,1.67,0,0,1,.14.32,1.49,1.49,0,0,1,.06.43.82.82,0,0,1-.18.58.65.65,0,0,1-.5.2H272a1.36,1.36,0,0,1-.39-.44,1.45,1.45,0,0,1,0-1.26,1.58,1.58,0,0,1,.36-.47l2.37-2.15a7.06,7.06,0,0,0,1.16-1.25,1.75,1.75,0,0,0,.32-1,1.1,1.1,0,0,0-.4-.88,1.86,1.86,0,0,0-1.18-.34,3,3,0,0,0-1.12.2,4.73,4.73,0,0,0-.82.44,1.64,1.64,0,0,1-.36-.34A.81.81,0,0,1,271.79,247.41Z"
              transform="translate(-34.39 -28.82)"/>
        <circle class="cls-15" cx="250.88" cy="196.7" r="8.02"/>
        <rect class="cls-12" x="247.06" y="191.51" width="7.8" height="9.76"/>
        <path class="cls-13"
              d="M282.38,221.93a.94.94,0,0,1,.35-.72,2.32,2.32,0,0,1,.93-.47,5.09,5.09,0,0,1,1.35-.17,4.42,4.42,0,0,1,1.85.35,2.48,2.48,0,0,1,1.14,1,2.58,2.58,0,0,1,.39,1.41,3.05,3.05,0,0,1-.45,1.57,7.24,7.24,0,0,1-1.44,1.63l-2.2,1.89h4a1.39,1.39,0,0,1,.14.32,1.56,1.56,0,0,1,.07.44.81.81,0,0,1-.19.57.65.65,0,0,1-.5.2h-5.25a1.24,1.24,0,0,1-.38-.44,1.15,1.15,0,0,1-.14-.59,1.3,1.3,0,0,1,.16-.67,2.24,2.24,0,0,1,.36-.47l2.37-2.15a6.86,6.86,0,0,0,1.17-1.25,1.83,1.83,0,0,0,.32-1,1.09,1.09,0,0,0-.41-.87,1.79,1.79,0,0,0-1.18-.35,2.83,2.83,0,0,0-1.12.21,3.78,3.78,0,0,0-.81.43,1.32,1.32,0,0,1-.37-.34A.86.86,0,0,1,282.38,221.93Z"
              transform="translate(-34.39 -28.82)"/>
        <circle class="cls-15" cx="281.57" cy="227.66" r="9.27"/>
        <polyline class="cls-12" points="290.48 231.93 272.65 231.93 272.65 221.93 290.48 221.93 290.48 231.93"/>
        <path class="cls-13"
              d="M308.52,252.55a.94.94,0,0,1,.35-.71,2.32,2.32,0,0,1,.93-.47,5.11,5.11,0,0,1,1.36-.17,4.41,4.41,0,0,1,1.84.35,2.48,2.48,0,0,1,1.14,1,2.58,2.58,0,0,1,.39,1.41,3,3,0,0,1-.45,1.56,7.05,7.05,0,0,1-1.44,1.64l-2.2,1.89h4a1.22,1.22,0,0,1,.14.32,1.56,1.56,0,0,1,.06.44.81.81,0,0,1-.18.57.64.64,0,0,1-.5.2h-5.25a1.24,1.24,0,0,1-.38-.44,1.27,1.27,0,0,1-.14-.6,1.29,1.29,0,0,1,.16-.66,2.24,2.24,0,0,1,.36-.47l2.37-2.15a7.63,7.63,0,0,0,1.17-1.25,1.83,1.83,0,0,0,.32-1,1.12,1.12,0,0,0-.41-.88,1.82,1.82,0,0,0-1.18-.34,2.83,2.83,0,0,0-1.12.21,3.78,3.78,0,0,0-.81.43,1.32,1.32,0,0,1-.37-.34A.87.87,0,0,1,308.52,252.55Z"
              transform="translate(-34.39 -28.82)"/>
        <path class="cls-13"
              d="M319.86,253.44h-.08l-.37,1.08c-.13.41-.28.83-.43,1.26s-.28.87-.41,1.28l-.25,1.17c-.06.18-.11.38-.17.59l-.18.63c-.07.2-.12.4-.18.59l-.14.5a2.75,2.75,0,0,1-.34.1,2.17,2.17,0,0,1-.47,0,1.52,1.52,0,0,1-.86-.21.69.69,0,0,1-.3-.6,1.13,1.13,0,0,1,.06-.36l.11-.41.39-1.21c.16-.48.33-1,.53-1.58s.39-1.13.59-1.68.38-1.08.56-1.55.32-.86.43-1.15a2.94,2.94,0,0,1,.62-.23,3.34,3.34,0,0,1,.82-.1,3.13,3.13,0,0,1,1,.16.87.87,0,0,1,.58.55c.19.51.4,1.11.63,1.79l.68,2.13q.34,1.11.66,2.16c.21.69.4,1.32.56,1.89a1,1,0,0,1-.44.28,1.92,1.92,0,0,1-.67.11,1.23,1.23,0,0,1-.79-.2,1.13,1.13,0,0,1-.35-.62l-.53-1.73L321,257c-.14-.45-.28-.89-.41-1.32s-.26-.85-.38-1.23S320,253.72,319.86,253.44Zm-2.44,5.09.79-1.63h3.49l.27,1.63Z"
              transform="translate(-34.39 -28.82)"/>
        <circle class="cls-15" cx="205.33" cy="214.17" r="8.02"/>
        <rect class="cls-12" x="201.5" y="208.98" width="7.8" height="9.76"/>
        <path class="cls-13"
              d="M239.34,238a4.07,4.07,0,0,1,2.49.68,2.25,2.25,0,0,1,.9,1.89,2.07,2.07,0,0,1-.73,1.6,2.16,2.16,0,0,1-.63.39,2.47,2.47,0,0,1,.77.43,2.23,2.23,0,0,1,.59.73,2.27,2.27,0,0,1,.24,1.08,2.46,2.46,0,0,1-.46,1.5,2.83,2.83,0,0,1-1.27.93,4.81,4.81,0,0,1-1.85.32,6.22,6.22,0,0,1-1.61-.18,2.72,2.72,0,0,1-1-.49.93.93,0,0,1-.36-.71.87.87,0,0,1,.17-.54,1.43,1.43,0,0,1,.38-.36,5.8,5.8,0,0,0,.88.48,3.63,3.63,0,0,0,1.39.23,2.27,2.27,0,0,0,1.34-.34,1.12,1.12,0,0,0,.48-1,1.14,1.14,0,0,0-.42-.93,2.07,2.07,0,0,0-1.3-.33H238a1.29,1.29,0,0,1-.14-.31,1.58,1.58,0,0,1-.06-.45,1.51,1.51,0,0,1,.06-.46,1.39,1.39,0,0,1,.14-.32h1.3a1.74,1.74,0,0,0,1.15-.31,1,1,0,0,0,.37-.83,1,1,0,0,0-.44-.85,2.07,2.07,0,0,0-1.23-.31,3.51,3.51,0,0,0-1.17.18,4.29,4.29,0,0,0-.83.4,1.6,1.6,0,0,1-.35-.34.89.89,0,0,1,.2-1.2,2.58,2.58,0,0,1,1-.45A5.58,5.58,0,0,1,239.34,238Z"
              transform="translate(-34.39 -28.82)"/>
        <circle class="cls-15" cx="222.03" cy="186.54" r="8.02"/>
        <rect class="cls-12" x="217.4" y="181.14" width="8.72" height="9.99"/>
        <path class="cls-13"
              d="M252.47,215.82l3.87-5.14a3.06,3.06,0,0,1,.5-.12,3.22,3.22,0,0,1,.5,0,2.34,2.34,0,0,1,.66.09,1,1,0,0,1,.7,1v4.58H260a1.08,1.08,0,0,1,.14.32,1.33,1.33,0,0,1,.08.45.86.86,0,0,1-.19.6.69.69,0,0,1-.51.2h-.84v2l-.37.07a2.61,2.61,0,0,1-.48.05,1.62,1.62,0,0,1-.78-.16q-.27-.15-.27-.66v-1.29h-3.91a1.22,1.22,0,0,1-.44-.41,1.2,1.2,0,0,1-.18-.67,2.42,2.42,0,0,1,0-.45A1.13,1.13,0,0,1,252.47,215.82Zm4.42.37v-3.7h0l-2.54,3.7Z"
              transform="translate(-34.39 -28.82)"/>
        <circle class="cls-15" cx="193.2" cy="174.48" r="8.02"/>
        <rect class="cls-12" x="188.56" y="169.08" width="8.72" height="9.99"/>
        <path class="cls-13"
              d="M223.64,203.75l3.87-5.14a2.83,2.83,0,0,1,.5-.12,3.22,3.22,0,0,1,.5,0,2.27,2.27,0,0,1,.65.09,1.06,1.06,0,0,1,.51.33,1,1,0,0,1,.19.67v4.58h1.33a2.32,2.32,0,0,1,.14.33,1.27,1.27,0,0,1,.07.44.86.86,0,0,1-.18.6.69.69,0,0,1-.51.2h-.85v2l-.36.07a2.8,2.8,0,0,1-.48.05,1.51,1.51,0,0,1-.78-.16q-.27-.15-.27-.66v-1.29h-3.91a1.14,1.14,0,0,1-.44-.41,1.2,1.2,0,0,1-.18-.67,2.42,2.42,0,0,1,0-.45A1.13,1.13,0,0,1,223.64,203.75Zm4.42.37v-3.7h0l-2.54,3.7Z"
              transform="translate(-34.39 -28.82)"/>
        <circle class="cls-15" cx="233.63" cy="158.21" r="8.02"/>
        <rect class="cls-12" x="229.27" y="153.21" width="8.72" height="9.99"/>
        <path class="cls-13"
              d="M267.44,182.69l-.39,1.22-.19,2.37a5.25,5.25,0,0,1,.63-.2,4.09,4.09,0,0,1,2.53.27,2.51,2.51,0,0,1,1.06,1,3.17,3.17,0,0,1,.38,1.57,3.1,3.1,0,0,1-.4,1.54,2.78,2.78,0,0,1-1.18,1.12,4.29,4.29,0,0,1-2,.43,6.06,6.06,0,0,1-1.56-.19,2.59,2.59,0,0,1-1.05-.53,1,1,0,0,1-.37-.74.84.84,0,0,1,.21-.57,1.42,1.42,0,0,1,.43-.36,5.21,5.21,0,0,0,.92.57,3.07,3.07,0,0,0,1.32.26,1.78,1.78,0,0,0,1.3-.44,1.45,1.45,0,0,0,.45-1.09,1.36,1.36,0,0,0-.43-1,1.71,1.71,0,0,0-1.22-.4,2.46,2.46,0,0,0-.81.13,7.13,7.13,0,0,0-.7.31,1.46,1.46,0,0,1-.92-.33,1.07,1.07,0,0,1-.34-.86v-.18c0-.06,0-.15,0-.26l.2-2.56a1.22,1.22,0,0,1,.33-.78,1,1,0,0,1,.77-.29Zm-.86,1.58v-1.58h4.25a.9.9,0,0,1,.15.31,1.23,1.23,0,0,1,.07.44.94.94,0,0,1-.19.62.67.67,0,0,1-.52.21Z"
              transform="translate(-34.39 -28.82)"/>
        <circle class="cls-15" cx="204.92" cy="146.33" r="8.02"/>
        <rect class="cls-12" x="200.56" y="141.33" width="8.72" height="9.99"/>
        <path class="cls-13"
              d="M238.73,170.81l-.39,1.22-.19,2.37a5.25,5.25,0,0,1,.63-.2,4.09,4.09,0,0,1,2.53.27,2.59,2.59,0,0,1,1.07,1,3.28,3.28,0,0,1,.37,1.57,3,3,0,0,1-.4,1.54,2.78,2.78,0,0,1-1.18,1.12,4.17,4.17,0,0,1-2,.43,6.06,6.06,0,0,1-1.56-.19,2.48,2.48,0,0,1-1-.53,1,1,0,0,1-.38-.74.84.84,0,0,1,.21-.57,1.42,1.42,0,0,1,.43-.36,5.6,5.6,0,0,0,.92.57,3.07,3.07,0,0,0,1.32.26,1.76,1.76,0,0,0,1.3-.44,1.45,1.45,0,0,0,.45-1.09,1.36,1.36,0,0,0-.43-1,1.71,1.71,0,0,0-1.22-.4,2.46,2.46,0,0,0-.81.13c-.23.09-.46.19-.7.31a1.48,1.48,0,0,1-.92-.33,1.07,1.07,0,0,1-.34-.86v-.18c0-.06,0-.15,0-.26l.21-2.56a1.21,1.21,0,0,1,.32-.78,1,1,0,0,1,.77-.29Zm-.85,1.58v-1.58h4.24a.9.9,0,0,1,.15.31,1.23,1.23,0,0,1,.07.44.89.89,0,0,1-.19.62.67.67,0,0,1-.52.21Z"
              transform="translate(-34.39 -28.82)"/>
        <circle class="cls-15" cx="261.37" cy="125.87" r="8.02"/>
        <polyline class="cls-12" points="265.73 130.66 257.01 130.66 257.01 120.67 265.73 120.67 265.73 130.66"/>
        <path class="cls-13"
              d="M298.66,151.07a1,1,0,0,1-.13.48.78.78,0,0,1-.3.34,4.31,4.31,0,0,0-.79-.27,3.56,3.56,0,0,0-.86-.11,2.43,2.43,0,0,0-1.19.28,2.19,2.19,0,0,0-.83.85,3.46,3.46,0,0,0-.37,1.44,3.75,3.75,0,0,1,.85-.49,3,3,0,0,1,1.26-.25,3.08,3.08,0,0,1,2.18.78,2.92,2.92,0,0,1,.84,2.25,3.23,3.23,0,0,1-.39,1.59,2.85,2.85,0,0,1-1.16,1.12,3.89,3.89,0,0,1-1.85.41A3.64,3.64,0,0,1,294,159a3.3,3.3,0,0,1-1.28-1.51,5.93,5.93,0,0,1-.46-2.51,7.33,7.33,0,0,1,.32-2.28,4.19,4.19,0,0,1,.89-1.57,3.43,3.43,0,0,1,1.31-.89,4.51,4.51,0,0,1,1.61-.29,4.68,4.68,0,0,1,1.18.13,1.87,1.87,0,0,1,.8.38A.78.78,0,0,1,298.66,151.07Zm-2.74,6.87a1.38,1.38,0,0,0,1.06-.43,1.57,1.57,0,0,0,.4-1.14,1.51,1.51,0,0,0-.4-1.12,1.42,1.42,0,0,0-1.06-.4,2.13,2.13,0,0,0-1,.23,2.21,2.21,0,0,0-.73.57l0,.16a2.37,2.37,0,0,0,.46,1.57A1.52,1.52,0,0,0,295.92,157.94Z"
              transform="translate(-34.39 -28.82)"/>
        <circle class="cls-15" cx="164.95" cy="134" r="8.02"/>
        <polyline class="cls-12" points="169.31 138.79 160.59 138.79 160.59 128.8 169.31 128.8 169.31 138.79"/>
        <path class="cls-13"
              d="M196.84,158.27h5.32a1.16,1.16,0,0,1,.36.37,1,1,0,0,1,.15.55,2.14,2.14,0,0,1-.17.81l-3.44,7.49h-.55a1.5,1.5,0,0,1-.83-.21.72.72,0,0,1-.32-.64,1.4,1.4,0,0,1,.12-.55c.08-.19.18-.41.31-.66l2.73-5.58h-4.16a1.59,1.59,0,0,1-.14-.34,1.22,1.22,0,0,1-.08-.43.83.83,0,0,1,.2-.61A.66.66,0,0,1,196.84,158.27Z"
              transform="translate(-34.39 -28.82)"/>
        <circle class="cls-15" cx="221.62" cy="110.19" r="9.27"/>
        <polyline class="cls-12" points="230.54 115.18 212.71 115.18 212.71 105.19 230.54 105.19 230.54 115.18"/>
        <path class="cls-13"
              d="M249.33,134.66h5.32a1.16,1.16,0,0,1,.36.37,1,1,0,0,1,.15.55,2.14,2.14,0,0,1-.17.81l-3.43,7.49-.28,0H251a1.45,1.45,0,0,1-.82-.21.71.71,0,0,1-.32-.65,1.38,1.38,0,0,1,.11-.55c.08-.19.18-.41.31-.66l2.73-5.58h-4.16a2.35,2.35,0,0,1-.14-.34,1.22,1.22,0,0,1-.08-.43.84.84,0,0,1,.2-.61A.66.66,0,0,1,249.33,134.66Z"
              transform="translate(-34.39 -28.82)"/>
        <path class="cls-13"
              d="M259.32,136.7h-.09q-.15.48-.36,1.08l-.43,1.26c-.15.44-.29.86-.41,1.28l-.25,1.16-.18.6a6.32,6.32,0,0,1-.18.62c-.06.21-.12.4-.17.59s-.1.36-.14.5a2.89,2.89,0,0,1-.35.11,2.07,2.07,0,0,1-.46,0,1.5,1.5,0,0,1-.86-.21.67.67,0,0,1-.31-.6,1.13,1.13,0,0,1,.06-.36c0-.12.08-.26.12-.41.09-.32.22-.73.38-1.21s.34-1,.53-1.58.39-1.13.59-1.69l.56-1.54c.18-.48.32-.86.44-1.15a2.32,2.32,0,0,1,.62-.23,3.3,3.3,0,0,1,.82-.11,3.11,3.11,0,0,1,1,.17.86.86,0,0,1,.59.55c.19.51.4,1.11.62,1.79s.45,1.39.68,2.13.46,1.46.67,2.15.39,1.33.56,1.89a1.13,1.13,0,0,1-.44.29,2,2,0,0,1-.67.11,1,1,0,0,1-1.15-.82l-.52-1.73-.22-1.13c-.14-.45-.27-.89-.41-1.33s-.26-.84-.37-1.22S259.41,137,259.32,136.7Zm-2.44,5.09.78-1.63h3.49l.28,1.63Z"
              transform="translate(-34.39 -28.82)"/>
        <circle class="cls-15" cx="70.8" cy="267.94" r="8.02"/>
        <polyline class="cls-12" points="75.16 272.73 66.44 272.73 66.44 262.74 75.16 262.74 75.16 272.73"/>
        <path class="cls-13"
              d="M104,296.31l1-.26a3.24,3.24,0,0,0,1.29-.52,1.07,1.07,0,0,0,.44-.89,1,1,0,0,0-.39-.86,1.76,1.76,0,0,0-1.09-.3,1.62,1.62,0,0,0-1.06.32,1,1,0,0,0-.4.84,1.07,1.07,0,0,0,.24.71,1.37,1.37,0,0,0,.63.42,3.87,3.87,0,0,0,.89.21l1.11.42a4,4,0,0,1,1,.44,2.32,2.32,0,0,1,.83.79,2.23,2.23,0,0,1,.33,1.26,2.28,2.28,0,0,1-.46,1.44,3,3,0,0,1-1.26.93,5.77,5.77,0,0,1-3.79,0,2.89,2.89,0,0,1-1.26-.93,2.36,2.36,0,0,1-.44-1.46,2.33,2.33,0,0,1,.35-1.3,2.71,2.71,0,0,1,.91-.84A3.39,3.39,0,0,1,104,296.31Zm2.69.42-1.22.4a2.66,2.66,0,0,0-1.42.58,1.38,1.38,0,0,0-.5,1.07,1.14,1.14,0,0,0,.45,1,2.34,2.34,0,0,0,2.43,0,1.1,1.1,0,0,0,.46-1,1.3,1.3,0,0,0-.63-1.13,3.46,3.46,0,0,0-1.74-.48l-.68-.39a3,3,0,0,1-1.45-.79,2,2,0,0,1-.54-1.42,2.28,2.28,0,0,1,.42-1.38,2.68,2.68,0,0,1,1.18-.88,4.53,4.53,0,0,1,1.76-.32,4,4,0,0,1,2.48.69,2.23,2.23,0,0,1,.91,1.89A1.89,1.89,0,0,1,108,296,3,3,0,0,1,106.69,296.73Z"
              transform="translate(-34.39 -28.82)"/>
    </g>
</svg>